<?xml version="1.0" standalone="no"?>
<!DOCTYPE svg PUBLIC "-//W3C//DTD SVG 20010904//EN"
 "http://www.w3.org/TR/2001/REC-SVG-20010904/DTD/svg10.dtd">
<svg version="1.0" xmlns="http://www.w3.org/2000/svg"
 width="1600.000000pt" height="256.000000pt" viewBox="0 0 1600.000000 256.000000"
 preserveAspectRatio="xMidYMid meet">

<g transform="translate(0.000000,256.000000) scale(0.100000,-0.100000)"
fill="#000000" stroke="none">
<path d="M14970 2269 c-646 -8 -1442 -18 -4920 -59 -1367 -16 -2870 -34 -3340
-40 -470 -6 -1996 -24 -3390 -40 -1394 -17 -2569 -31 -2610 -33 -74 -2 -75 -2
-78 -29 l-3 -28 7102 -2 7102 -3 -1151 -864 c-634 -475 -1152 -867 -1152 -872
0 -5 7 -9 16 -9 21 0 3244 1969 3244 1981 0 5 -57 8 -127 7 -71 -1 -382 -5
-693 -9z"/>
<path d="M965 1612 c-6 -4 -17 -20 -25 -37 -8 -16 -17 -32 -20 -35 -10 -10
-31 -45 -36 -62 -4 -10 -10 -18 -15 -18 -5 0 -9 -5 -9 -11 0 -6 -10 -25 -22
-42 -13 -18 -28 -41 -34 -52 -34 -63 -58 -102 -70 -116 -8 -8 -14 -21 -14 -27
0 -7 -4 -12 -10 -12 -5 0 -10 -5 -10 -11 0 -6 -10 -25 -22 -42 -13 -18 -29
-42 -35 -54 -7 -13 -19 -33 -25 -46 -7 -12 -23 -36 -35 -54 -13 -17 -23 -34
-23 -37 0 -3 154 -6 343 -6 l342 0 25 38 c51 76 58 72 -115 72 -131 0 -155 2
-155 15 0 8 3 15 8 15 4 0 16 18 26 40 11 22 22 40 25 40 3 0 12 13 19 29 l13
30 164 3 c163 3 165 3 182 28 19 26 43 69 43 76 0 2 -67 4 -148 4 -82 0 -152
3 -155 7 -6 5 27 69 42 83 4 3 13 19 21 35 8 17 19 33 25 37 5 4 78 8 161 8
165 0 173 2 204 65 8 17 19 33 25 37 5 4 -145 8 -335 8 -190 0 -350 -4 -355
-8z"/>
<path d="M1985 1614 c-16 -3 -62 -11 -102 -20 -82 -17 -102 -36 -167 -159 -6
-11 -21 -34 -33 -52 -13 -17 -23 -36 -23 -42 0 -6 -3 -11 -7 -11 -5 0 -13 -11
-19 -25 -11 -23 -9 -25 35 -40 25 -9 112 -22 194 -28 81 -6 147 -15 147 -20 0
-4 -11 -23 -25 -41 -14 -18 -25 -37 -25 -41 0 -4 -11 -23 -26 -42 -19 -24 -33
-33 -55 -33 l-30 0 19 28 c11 15 23 37 26 50 l7 22 -171 0 -172 0 -29 -31
c-16 -17 -29 -37 -29 -44 0 -7 -3 -15 -7 -17 -5 -1 -16 -18 -26 -36 l-18 -32
28 -11 c69 -26 148 -34 348 -33 156 0 233 5 298 18 92 18 137 33 137 48 0 4
20 39 45 78 25 39 45 73 45 77 0 3 11 21 25 39 14 18 25 37 25 43 0 6 5 11 10
11 6 0 10 6 10 13 0 29 -139 57 -287 57 -57 0 -103 2 -103 4 0 7 24 50 45 81
12 17 27 42 35 58 10 21 20 27 47 27 18 0 33 -4 33 -10 0 -5 -4 -10 -10 -10
-5 0 -10 -6 -10 -14 0 -7 -7 -19 -15 -26 -8 -7 -15 -16 -15 -21 0 -5 83 -9
185 -9 133 0 185 3 185 12 0 6 11 26 25 44 14 18 25 37 25 42 0 6 4 12 9 14 4
2 11 13 15 25 6 19 1 24 -46 39 -43 14 -98 18 -288 20 -129 1 -248 0 -265 -2z"/>
<path d="M2790 1611 c0 -5 -6 -16 -12 -23 -7 -7 -20 -26 -28 -43 -8 -16 -17
-32 -20 -35 -10 -10 -31 -45 -36 -62 -4 -10 -10 -18 -15 -18 -5 0 -9 -5 -9
-10 0 -9 -47 -87 -60 -100 -3 -3 -12 -18 -20 -35 -8 -16 -17 -32 -20 -35 -10
-10 -31 -45 -36 -62 -4 -10 -10 -18 -15 -18 -5 0 -9 -5 -9 -11 0 -6 -10 -25
-22 -42 -13 -18 -28 -41 -34 -52 -6 -11 -23 -41 -38 -67 l-27 -48 186 0 c124
0 185 3 185 11 0 6 11 25 25 43 14 18 25 38 25 44 0 7 3 12 8 12 4 0 16 18 26
40 11 22 22 40 25 40 3 0 13 15 20 33 8 17 20 37 25 42 6 6 85 16 176 23 213
16 276 31 313 74 15 18 27 38 27 45 0 7 5 13 10 13 6 0 10 5 10 11 0 6 10 25
23 42 12 18 27 41 33 52 6 11 21 37 32 58 12 21 22 40 22 42 0 2 -24 12 -52
22 -45 14 -104 17 -385 21 -218 2 -333 0 -333 -7z m360 -116 c0 -8 -4 -15 -10
-15 -5 0 -10 -5 -10 -12 0 -6 -10 -25 -23 -42 -12 -17 -29 -43 -36 -58 -11
-21 -22 -28 -44 -28 -19 0 -27 4 -23 13 3 6 9 20 12 30 4 9 9 17 13 17 4 0 13
16 21 35 8 19 17 35 21 35 4 0 9 9 12 20 6 25 67 29 67 5z"/>
<path d="M3763 1613 c-7 -2 -13 -9 -13 -15 0 -6 -11 -26 -25 -44 -14 -18 -25
-37 -25 -43 0 -6 -3 -11 -8 -11 -4 0 -15 -18 -25 -40 -9 -22 -21 -40 -25 -40
-5 0 -14 -16 -22 -35 -8 -19 -17 -35 -22 -35 -4 0 -8 -5 -8 -11 0 -6 -10 -25
-22 -42 -13 -18 -29 -42 -35 -54 -7 -13 -19 -33 -25 -46 -7 -12 -23 -36 -35
-54 -13 -17 -23 -36 -23 -42 0 -6 -4 -11 -9 -11 -5 0 -11 -8 -15 -17 -5 -18
-26 -53 -36 -63 -7 -7 -30 -49 -30 -55 0 -3 83 -5 185 -5 158 0 185 2 185 15
0 8 3 15 8 15 4 0 13 15 21 33 8 17 17 34 20 37 10 8 61 89 61 96 0 4 11 22
25 40 14 18 25 37 25 43 0 6 3 11 8 11 4 0 15 18 25 40 9 22 21 40 25 40 5 0
14 16 22 35 8 19 17 35 22 35 4 0 8 5 8 12 0 6 10 25 23 42 13 17 26 38 30 46
4 8 18 33 31 55 14 22 30 48 36 58 10 16 0 17 -167 16 -98 0 -184 -3 -190 -6z"/>
<path d="M4936 1595 c-9 -13 -16 -27 -16 -30 0 -4 -11 -21 -25 -39 -14 -18
-25 -38 -25 -44 0 -7 -4 -12 -10 -12 -5 0 -10 -5 -10 -12 0 -6 -11 -26 -25
-44 -14 -18 -25 -37 -25 -43 0 -6 -3 -11 -8 -11 -4 0 -15 -18 -25 -40 -9 -22
-21 -40 -25 -40 -5 0 -14 -16 -22 -35 -8 -19 -17 -35 -22 -35 -4 0 -8 -5 -8
-11 0 -6 -10 -25 -22 -42 -13 -18 -29 -42 -35 -54 -7 -13 -19 -33 -25 -46 -7
-12 -23 -36 -35 -54 -13 -17 -23 -36 -23 -42 0 -8 53 -11 181 -9 l181 3 25 45
c14 25 31 52 39 61 8 8 14 21 14 27 0 7 3 12 8 12 4 0 16 18 26 40 11 22 22
40 26 40 3 0 12 16 20 35 8 19 17 35 22 35 4 0 8 5 8 12 0 6 11 26 25 44 14
18 25 35 25 38 0 3 20 37 45 76 25 39 45 75 45 80 0 6 3 10 8 10 7 0 25 30 38
63 3 9 10 17 15 17 5 0 9 7 9 15 0 13 -27 15 -179 15 l-179 0 -16 -25z"/>
<path d="M5482 1608 c-7 -7 -12 -16 -12 -21 0 -4 -11 -23 -25 -41 -14 -18 -25
-38 -25 -44 0 -7 -4 -12 -10 -12 -5 0 -10 -5 -10 -11 0 -6 -10 -25 -22 -42
-13 -18 -29 -42 -35 -54 -7 -13 -19 -33 -25 -46 -7 -12 -23 -36 -35 -54 -13
-17 -23 -34 -23 -37 0 -7 -51 -88 -61 -96 -3 -3 -12 -20 -20 -37 -8 -18 -17
-33 -20 -33 -4 0 -9 -8 -13 -17 -5 -18 -26 -53 -36 -63 -3 -3 -11 -15 -18 -27
l-12 -23 182 0 183 0 23 35 c12 19 22 37 22 41 0 3 11 20 25 38 14 18 25 36
25 40 0 9 30 40 33 35 9 -13 37 -107 37 -121 0 -9 5 -29 12 -43 l11 -25 178 0
178 0 14 28 c29 55 42 78 65 109 12 17 22 36 22 42 0 6 5 11 10 11 6 0 10 5
10 11 0 6 10 25 23 42 12 18 28 42 35 54 6 13 18 33 25 46 6 12 22 36 35 54
12 17 22 34 22 37 0 3 20 37 45 76 25 39 45 75 45 80 0 6 5 10 10 10 6 0 10 6
10 14 0 7 7 19 15 26 8 7 15 16 15 21 0 5 -83 9 -185 9 -124 0 -185 -3 -185
-11 0 -6 -11 -25 -25 -43 -14 -18 -25 -38 -25 -44 0 -7 -3 -12 -8 -12 -4 0
-13 -14 -21 -31 -13 -30 -36 -47 -48 -35 -4 3 -10 30 -15 59 -5 28 -11 67 -15
85 l-5 32 -182 0 c-128 0 -186 -4 -194 -12z"/>
<path d="M6549 1588 c-13 -18 -30 -43 -36 -55 -7 -13 -19 -33 -25 -46 -7 -12
-23 -36 -35 -54 -13 -17 -23 -34 -23 -37 0 -7 -51 -88 -61 -96 -3 -3 -12 -20
-20 -37 -8 -18 -17 -33 -21 -33 -5 0 -8 -5 -8 -11 0 -6 -11 -25 -25 -43 -14
-18 -25 -36 -25 -40 0 -5 -10 -22 -22 -39 -13 -18 -28 -41 -34 -52 -6 -11 -21
-37 -33 -59 l-22 -38 313 5 c383 6 473 18 526 75 17 20 32 42 32 49 0 7 5 13
10 13 6 0 10 5 10 12 0 6 10 25 23 42 13 17 30 46 38 64 8 17 17 32 21 32 5 0
8 5 8 11 0 6 11 25 25 43 14 18 25 36 25 39 0 4 20 38 45 77 25 39 45 75 45
80 0 6 5 10 10 10 6 0 10 6 10 14 0 7 7 19 15 26 27 22 16 39 -37 57 -45 14
-104 17 -379 21 l-327 3 -23 -33z m368 -103 c-7 -14 -15 -25 -19 -25 -5 0 -8
-5 -8 -12 0 -6 -11 -26 -25 -44 -14 -18 -25 -37 -25 -43 0 -6 -3 -11 -8 -11
-4 0 -13 -15 -21 -32 -8 -18 -25 -47 -38 -64 -13 -17 -23 -36 -23 -42 0 -7 -4
-12 -10 -12 -5 0 -10 -5 -10 -12 0 -6 -10 -25 -23 -42 -12 -17 -29 -43 -36
-58 -11 -22 -21 -28 -48 -28 l-34 0 36 55 c19 31 35 60 35 65 0 6 3 10 8 10 7
0 25 30 38 63 3 9 10 17 15 17 5 0 9 5 9 11 0 6 10 25 23 42 12 18 27 41 33
52 64 118 78 135 115 135 25 0 26 -2 16 -25z"/>
<path d="M7522 1608 c-7 -7 -12 -16 -12 -22 0 -5 -11 -24 -25 -42 -14 -18 -25
-37 -25 -43 0 -6 -4 -11 -10 -11 -5 0 -10 -5 -10 -12 0 -6 -10 -25 -23 -42
-13 -17 -30 -46 -38 -63 -8 -18 -17 -33 -21 -33 -5 0 -8 -5 -8 -12 0 -6 -11
-26 -25 -44 -14 -18 -25 -35 -25 -38 0 -3 -20 -37 -45 -76 -25 -39 -45 -75
-45 -80 0 -6 -4 -10 -9 -10 -5 0 -11 -8 -15 -17 -3 -10 -11 -26 -18 -35 -9
-13 -10 -20 -1 -29 55 -55 522 -63 717 -13 64 16 73 23 96 69 8 17 17 32 20
35 10 10 31 45 36 63 4 9 10 17 15 17 5 0 9 7 9 15 0 8 3 15 8 15 4 0 16 18
26 40 11 22 22 40 25 40 3 0 12 15 20 33 8 17 17 34 20 37 10 8 61 89 61 96 0
3 10 20 23 37 21 30 29 43 62 105 l15 27 -176 3 c-178 2 -204 -2 -204 -34 0
-8 -4 -14 -10 -14 -5 0 -10 -5 -10 -10 0 -10 -48 -90 -61 -100 -3 -3 -12 -20
-20 -37 -8 -18 -17 -33 -21 -33 -5 0 -8 -5 -8 -11 0 -6 -11 -25 -25 -43 -14
-18 -25 -36 -25 -39 0 -4 -20 -38 -45 -77 -25 -39 -45 -73 -45 -76 0 -3 -12
-23 -27 -45 -21 -29 -35 -39 -56 -39 -19 0 -27 4 -23 13 3 6 9 20 12 30 4 9
10 17 15 17 5 0 9 5 9 12 0 6 11 26 25 44 14 18 25 37 25 43 0 6 3 11 8 11 4
0 15 18 25 40 9 22 21 40 25 40 5 0 14 16 22 35 8 19 17 35 22 35 4 0 8 5 8
11 0 6 10 25 23 42 12 18 28 42 35 54 6 13 18 33 25 46 6 12 22 37 35 55 l23
32 -183 0 c-130 0 -188 -4 -196 -12z"/>
<path d="M8625 1609 c-129 -19 -146 -28 -197 -104 -26 -39 -47 -74 -47 -78 -1
-5 -11 -23 -23 -40 -35 -49 -59 -97 -53 -107 10 -16 138 -39 258 -46 119 -7
137 -15 102 -44 -8 -7 -15 -19 -15 -26 0 -8 -3 -14 -8 -14 -4 0 -14 -15 -21
-32 -20 -45 -35 -58 -65 -58 -31 0 -32 6 -6 45 36 55 35 55 -151 55 l-170 0
-30 -32 c-16 -18 -29 -38 -29 -45 0 -7 -3 -13 -7 -13 -9 0 -33 -48 -33 -65 0
-7 35 -21 78 -31 106 -26 453 -26 585 0 94 18 137 33 137 49 0 5 10 23 23 40
12 18 28 42 35 54 6 13 18 33 25 46 6 12 22 36 35 54 12 17 22 36 22 42 0 6 5
11 10 11 6 0 10 7 10 15 0 26 -96 46 -247 52 -79 3 -143 8 -143 10 0 5 33 57
41 63 3 3 12 20 20 38 8 17 17 32 21 32 5 0 8 7 8 15 0 10 11 15 35 15 31 0
47 -13 28 -22 -5 -1 -16 -18 -26 -35 l-18 -33 185 0 c108 0 186 4 186 9 0 5 6
16 13 23 6 7 19 27 27 43 8 17 18 32 21 35 4 3 9 15 13 27 6 20 1 24 -46 39
-43 14 -98 18 -288 20 -129 1 -262 -2 -295 -7z"/>
<path d="M9460 1609 c0 -6 -12 -26 -26 -44 -14 -19 -23 -39 -19 -45 4 -6 48
-10 106 -10 l100 0 -25 -33 c-15 -19 -26 -39 -26 -45 0 -7 -4 -12 -10 -12 -5
0 -10 -5 -10 -11 0 -6 -10 -25 -22 -42 -13 -18 -29 -42 -35 -54 -7 -13 -19
-33 -25 -46 -7 -12 -23 -36 -35 -54 -13 -17 -23 -34 -23 -37 0 -7 -51 -88 -61
-96 -3 -3 -12 -20 -20 -37 -8 -18 -17 -33 -21 -33 -5 0 -8 -5 -8 -12 0 -6 -7
-20 -17 -30 -16 -17 -10 -18 166 -18 136 0 185 3 194 13 18 19 37 50 43 70 4
9 10 17 15 17 5 0 9 5 9 11 0 6 10 25 23 42 12 18 27 41 33 52 34 63 58 102
70 116 8 8 14 21 14 27 0 7 5 12 10 12 6 0 10 5 10 12 0 6 10 25 23 42 12 17
29 45 37 61 8 17 17 32 20 35 3 3 10 14 16 25 10 18 24 21 124 25 79 3 115 9
118 18 2 7 9 18 15 25 14 14 37 54 37 62 0 3 -180 5 -400 5 -277 0 -400 -3
-400 -11z"/>
<path d="M10433 1614 c-7 -3 -13 -10 -13 -16 0 -6 -10 -25 -23 -42 -13 -17
-30 -46 -38 -63 -8 -18 -17 -33 -21 -33 -5 0 -8 -5 -8 -12 0 -6 -11 -26 -25
-44 -14 -18 -25 -37 -25 -43 0 -6 -4 -11 -10 -11 -5 0 -10 -5 -10 -11 0 -6
-10 -25 -22 -42 -13 -18 -29 -42 -35 -54 -7 -13 -19 -33 -25 -46 -7 -12 -23
-36 -35 -54 -13 -17 -23 -34 -23 -37 0 -3 -20 -37 -45 -76 -25 -39 -45 -72
-45 -75 0 -3 83 -5 185 -5 158 0 185 2 185 15 0 8 5 15 10 15 6 0 10 5 10 12
0 6 11 26 25 44 14 18 25 37 25 43 0 6 3 11 8 11 4 0 14 15 21 33 8 17 26 49
40 69 21 30 32 37 59 38 l33 0 -25 -33 c-15 -19 -26 -37 -26 -40 0 -4 -16 -31
-34 -60 -19 -30 -47 -75 -61 -101 l-26 -46 186 0 c124 0 185 3 185 11 0 6 11
25 25 43 14 18 25 36 25 40 0 6 50 86 60 96 3 3 12 19 20 35 8 17 17 32 20 35
3 3 11 15 18 28 14 26 9 42 -16 43 -9 0 1 9 24 18 37 17 59 41 90 96 42 75 58
102 70 116 8 8 14 21 14 27 0 7 5 12 10 12 6 0 10 7 10 15 0 8 -21 21 -52 32
-45 14 -102 17 -378 19 -179 2 -331 1 -337 -2z m357 -118 c0 -7 -7 -19 -15
-26 -8 -7 -15 -19 -15 -26 0 -8 -4 -14 -10 -14 -5 0 -10 -5 -10 -12 0 -6 -11
-26 -26 -45 -23 -30 -52 -42 -67 -27 -6 7 15 51 49 99 11 17 24 38 27 48 8 21
67 24 67 3z"/>
<path d="M11395 1612 c-6 -4 -17 -20 -25 -37 -8 -16 -17 -32 -20 -35 -10 -10
-31 -45 -36 -62 -4 -10 -10 -18 -15 -18 -5 0 -9 -4 -9 -10 0 -5 -20 -41 -45
-80 -25 -39 -45 -73 -45 -76 0 -3 -10 -20 -22 -37 -13 -18 -29 -42 -35 -54 -7
-13 -19 -33 -25 -46 -7 -12 -23 -36 -35 -54 -13 -17 -23 -36 -23 -42 0 -6 -4
-11 -10 -11 -5 0 -10 -5 -10 -12 0 -6 -11 -26 -25 -44 -14 -18 -25 -35 -25
-38 0 -3 83 -6 183 -6 l184 0 19 35 c10 19 21 35 24 35 4 0 12 16 20 35 8 19
17 35 22 35 4 0 8 5 8 11 0 6 11 25 25 43 14 18 25 36 25 39 0 4 20 38 45 77
25 39 45 75 45 80 0 6 3 10 8 10 7 0 25 30 38 63 3 9 10 17 15 17 5 0 9 4 9
10 0 5 19 40 43 77 72 112 83 103 -121 103 -97 0 -182 -4 -187 -8z"/>
<path d="M11920 1593 c-8 -16 -23 -41 -35 -58 -11 -16 -26 -40 -32 -52 -7 -13
-19 -33 -25 -46 -7 -12 -23 -36 -35 -54 -13 -17 -23 -36 -23 -42 0 -6 -4 -11
-10 -11 -5 0 -10 -5 -10 -12 0 -6 -10 -25 -23 -42 -13 -17 -30 -46 -38 -63 -8
-18 -17 -33 -21 -33 -5 0 -8 -5 -8 -11 0 -6 -11 -25 -25 -43 -14 -18 -25 -38
-25 -44 0 -7 -3 -12 -7 -12 -5 0 -17 -18 -27 -40 -11 -22 -22 -40 -26 -40 -4
0 -10 -9 -13 -20 -5 -20 0 -20 339 -20 319 0 345 1 351 18 4 9 17 31 30 48 13
17 23 34 23 37 0 4 -72 7 -161 7 l-160 0 20 29 c12 16 21 33 21 39 0 5 6 15
14 21 8 7 22 27 31 46 l16 35 159 0 159 0 30 37 c17 21 31 43 31 49 0 7 6 15
13 17 6 3 -61 6 -150 6 -90 1 -163 3 -163 5 0 7 24 50 45 81 12 17 27 42 35
58 l13 27 148 0 c81 0 158 4 171 9 18 7 68 78 68 97 0 2 -154 4 -343 4 l-344
0 -13 -27z"/>
<path d="M12925 1609 c-82 -12 -165 -38 -165 -50 0 -6 -11 -25 -25 -43 -14
-18 -25 -38 -25 -44 0 -7 -4 -12 -10 -12 -5 0 -10 -5 -10 -12 0 -6 -10 -25
-23 -42 -13 -17 -30 -46 -38 -63 -8 -18 -17 -33 -21 -33 -5 0 -8 -6 -8 -14 0
-8 18 -21 39 -29 41 -17 205 -37 297 -37 l54 0 -17 -27 c-10 -16 -20 -30 -24
-33 -3 -3 -12 -20 -20 -37 -8 -18 -17 -33 -20 -33 -4 0 -9 -9 -12 -20 -6 -25
-67 -29 -67 -5 0 8 3 15 8 15 10 0 32 51 26 61 -3 5 -81 9 -173 9 -184 0 -180
1 -219 -69 -8 -13 -22 -39 -32 -57 l-19 -33 42 -15 c124 -47 483 -47 686 -1
56 13 71 21 82 43 8 15 16 29 19 32 10 10 31 45 36 63 4 9 10 17 15 17 5 0 9
4 9 10 0 5 18 37 39 72 22 34 38 65 35 70 -13 20 -118 40 -234 45 -69 2 -131
6 -138 9 -10 3 -8 13 9 41 13 21 25 40 28 43 4 3 13 19 21 35 19 38 28 45 63
45 l29 0 -23 -37 c-13 -21 -28 -41 -33 -45 -6 -4 73 -8 175 -8 l187 0 24 33
c14 17 31 47 39 65 8 17 17 32 21 32 5 0 8 7 8 15 0 8 -21 21 -52 31 -43 14
-99 18 -288 20 -129 1 -262 -2 -295 -7z"/>
</g>
</svg>
